<svg width="30" height="30" viewBox="0 0 30 30" fill="none" xmlns="http://www.w3.org/2000/svg">
<path d="M15.0469 15.7458C15.7593 15.7458 16.4647 15.6054 17.1228 15.3328C17.781 15.0602 18.379 14.6606 18.8828 14.1569C19.3865 13.6532 19.7861 13.0551 20.0587 12.397C20.3313 11.7388 20.4716 11.0334 20.4716 10.321C20.4716 9.60862 20.3313 8.9032 20.0587 8.24504C19.7861 7.58688 19.3865 6.98886 18.8828 6.48513C18.379 5.98139 17.781 5.58181 17.1228 5.30919C16.4647 5.03657 15.7593 4.89625 15.0469 4.89625C13.6082 4.89625 12.2283 5.46779 11.211 6.48513C10.1937 7.50247 9.62213 8.88227 9.62213 10.321C9.62213 11.7597 10.1937 13.1395 11.211 14.1569C12.2283 15.1742 13.6082 15.7458 15.0469 15.7458V15.7458ZM15.0553 3C16.6432 2.99948 18.1872 3.52151 19.4489 4.48554C20.7107 5.44956 21.6202 6.80201 22.037 8.33421C22.4539 9.86641 22.3549 11.4932 21.7555 12.9636C21.156 14.434 20.0893 15.6663 18.72 16.4703C23.1659 17.8084 26.5052 21.5551 27.1043 26.2083C27.161 26.6507 26.8319 27.0522 26.3689 27.1064C25.9072 27.1606 25.4853 26.8472 25.4287 26.4048C24.7777 21.3537 20.4029 17.5504 15.0975 17.5504C9.76318 17.5504 5.33176 21.361 4.68199 26.4048C4.62533 26.8472 4.20341 27.1606 3.7417 27.1064C3.27879 27.0522 2.94969 26.6507 3.00634 26.2083C3.60427 21.5744 6.96159 17.8325 11.4147 16.4823C10.0413 15.682 8.96974 14.4514 8.36581 12.981C7.76187 11.5105 7.65916 9.88209 8.07357 8.34742C8.48797 6.81275 9.3964 5.45734 10.6584 4.49076C11.9204 3.52417 13.4657 3.00025 15.0553 3V3Z" fill="black"/>
</svg>
